<?xml version="1.0" encoding="utf-8"?>
<!-- Generator: Adobe Illustrator 23.0.3, SVG Export Plug-In . SVG Version: 6.00 Build 0)  -->
<svg version="1.1" id="Capa_1" xmlns="http://www.w3.org/2000/svg" xmlns:xlink="http://www.w3.org/1999/xlink" x="0px" y="0px"
	 viewBox="0 0 2562 2511.79" style="enable-background:new 0 0 2562 2511.79;" xml:space="preserve">
<path d="M1618.82,412.14h-74.84c0,135.85-34.26,197.45-105.55,240.15V412.1h-115.15v290.15c-21.5,7.54-44.59,15.35-69.34,23.84
	c-13.89,4.73-27.34,9.44-40.4,14.1V412.1h-115.21V788.1c-116.49,59.1-179.56,140.89-179.56,325.44h74.82
	c0-126.01,30.86-188.41,104.74-234.87v234.96h115.2V825.62c19.54-7.28,40.45-14.61,63-22.35c15.91-5.45,31.5-10.76,46.74-16.02
	v326.37h115.15V741.81C1548.19,688.8,1618.82,609.37,1618.82,412.14 M1182.72,1654.82h-136.23l-0.06-100.7h136.71
	c40.49,0,58.06,15.83,58.06,51.79C1241.2,1632.82,1230.2,1654.82,1182.72,1654.82 M1170.59,1400.62c43.7,0,57.14,15.86,57.14,42.25
	c0,26.35-11.65,45.18-55.5,45.18l-125.81,0.04v-87.47L1170.59,1400.62L1170.59,1400.62z M1274.39,1517.81
	c24.25-18.94,38.11-46.55,38.11-79.93c0-33.29-13.5-110.69-138.06-110.69H968.49v400.76h219.03c88.19,0,138.82-44.53,138.82-121.93
	C1326.34,1568.27,1308.34,1538.07,1274.39,1517.81 M2194.15,1327.19v81.51h126.01v319.26h78.57v-319.26h122.85v-81.51H2194.15z
	 M1947.4,1659.76c-76.25,0-136.04-58.6-136.04-133.42s59.8-133.38,136.05-133.38c76.34,0,136.06,58.56,136.06,133.39
	S2023.75,1659.76,1947.4,1659.76 M1947.41,1315.76c-120.39,0-214.76,92.49-214.76,210.6c0,118.12,94.38,210.58,214.76,210.58
	c120.46,0,214.82-92.46,214.82-210.58C2162.22,1408.26,2067.86,1315.76,1947.41,1315.76 M1437.83,1327.19v400.67h270.46v-81.08
	h-192.02v-319.6H1437.83z M785.21,1327.2v209.16c0,60.81-6.29,125.26-105.93,125.26c-99.67,0-106.75-63.09-106.75-125.26V1327.2
	h-78.09v214.13c0,95.63,26.72,197.76,184.84,197.76c158.08,0,184.65-103.6,184.65-197.76V1327.2L785.21,1327.2z M301.98,1327.19
	v149.22H100.09V1327.1h-78.5V1728h78.5v-169.58h201.89V1728h77.96v-400.81H301.98z"/>
</svg>
