<?xml version="1.0" encoding="utf-8"?>
<!-- Generator: Adobe Illustrator 23.0.3, SVG Export Plug-In . SVG Version: 6.00 Build 0)  -->
<svg version="1.1" id="Capa_1" xmlns="http://www.w3.org/2000/svg" xmlns:xlink="http://www.w3.org/1999/xlink" x="0px" y="0px"
	 viewBox="0 0 142 142" style="enable-background:new 0 0 142 142;" xml:space="preserve">
<style type="text/css">
	.st0{fill-rule:evenodd;clip-rule:evenodd;}
</style>
<g>
	<path class="st0" d="M33.1,45.46h15.21c4.11,0,7.46,3.36,7.46,7.46v30.75c0,4.11-3.36,7.46-7.46,7.46h-8.83l0.46,5.68H33.1V76.43
		h5.18l0.95,11.7h4.17c2.08,0,3.79-1.7,3.79-3.79V52.25c0-2.08-1.7-3.79-3.79-3.79H33.1V45.46z M18.56,45.46H33.1v3.01H22.8
		c-2.08,0-3.79,1.7-3.79,3.79v32.08c0,2.08,1.7,3.79,3.79,3.79h8.08l-0.95-11.7h3.17v20.39h-1.51l-0.46-5.68H18.56
		c-4.1,0-7.46-3.36-7.46-7.46V52.92C11.1,48.82,14.46,45.46,18.56,45.46z"/>
	<path class="st0" d="M107.96,45.46h15.21c4.1,0,7.46,3.36,7.46,7.46v30.75c0,4.11-3.36,7.46-7.46,7.46h-8.83l0.46,5.68h-6.84V76.43
		h5.18l0.95,11.7h4.17c2.08,0,3.79-1.7,3.79-3.79V52.25c0-2.08-1.7-3.79-3.79-3.79h-10.3V45.46z M93.42,45.46h14.54v3.01h-10.3
		c-2.08,0-3.79,1.7-3.79,3.79v32.08c0,2.08,1.7,3.79,3.79,3.79h8.08l-0.95-11.7h3.18v20.39h-1.51l-0.46-5.68H93.42
		c-4.11,0-7.46-3.36-7.46-7.46V52.92C85.96,48.82,89.32,45.46,93.42,45.46z"/>
	<path class="st0" d="M71.34,61.77h0.89c2.75,0,5,2.25,5,5v2.24h-1.45v-1.12c0-1.81-1.48-3.29-3.29-3.29h-1.15V61.77L71.34,61.77z
		 M71.34,74.53l5.89,4.56v-2.85h1.32v3.87l4.01,3.11v7.24l-4.09-3.28c-0.38,1.86-2.03,3.28-4,3.28h-3.13v-1.58h3.65
		c1.23,0,2.24-1.01,2.24-2.24V86.2l-5.89-4.71V74.53z M66.7,61.77h4.64v2.83h-0.36c-1.81,0-3.29,1.48-3.29,3.29v1.12v2.7l3.65,2.83
		v6.95l-5.89-4.71v1.55v1.53v6.79c0,1.23,1.01,2.24,2.24,2.24h3.65v1.58h-7.67c-2.24,0-4.08-1.84-4.08-4.08v-8.01
		c0-1.95,1.39-3.59,3.22-3.99c-0.7-0.86-1.12-1.95-1.12-3.14v-4.47C61.7,64.02,63.95,61.77,66.7,61.77z"/>
</g>
</svg>
